<svg width="32" height="16" viewBox="0 0 32 16" fill="none" xmlns="http://www.w3.org/2000/svg">
<path d="M30.1548 9C30.7071 9 31.1548 8.55228 31.1548 8C31.1548 7.44772 30.7071 7 30.1548 7V9ZM0.292917 7.29289C-0.0976067 7.68342 -0.0976067 8.31658 0.292917 8.70711L6.65688 15.0711C7.0474 15.4616 7.68057 15.4616 8.07109 15.0711C8.46162 14.6805 8.46162 14.0474 8.07109 13.6569L2.41424 8L8.07109 2.34315C8.46162 1.95262 8.46162 1.31946 8.07109 0.928932C7.68057 0.538408 7.0474 0.538408 6.65688 0.928932L0.292917 7.29289ZM30.1548 7L1.00002 7V9L30.1548 9V7Z" fill="#484848"/>
</svg>
