<svg width="258" height="197" viewBox="0 0 258 197" fill="none" xmlns="http://www.w3.org/2000/svg">
<g clip-path="url(#clip0_203_4730)">
<path d="M94.4843 68.7402H68.2063C66.8168 68.7402 65.6904 69.866 65.6904 71.2547V163.18C65.6904 164.569 66.8168 165.695 68.2063 165.695H94.4843C95.8738 165.695 97.0002 164.569 97.0002 163.18V71.2547C97.0002 69.866 95.8738 68.7402 94.4843 68.7402Z" fill="#71717A"/>
<path d="M164.545 80.1345C165.956 83.3237 167.827 86.2894 170.098 88.9373C170.311 89.1849 170.529 89.4282 170.751 89.6673C171.609 90.587 172.533 91.4431 173.515 92.2287C173.75 92.4208 173.993 92.6044 174.232 92.7837C177.09 94.8926 179.982 95.9727 182.668 95.9727C182.916 95.9727 183.16 95.9727 183.403 95.9428L183.668 95.9215H183.702C183.856 95.9215 184.005 95.8873 184.159 95.8617C184.232 95.8617 184.3 95.8361 184.373 95.8233L184.642 95.772L184.86 95.7208L185.12 95.661L185.295 95.6055L185.594 95.5202L185.774 95.4561C185.868 95.422 185.966 95.3921 186.06 95.3537L186.137 95.3195C186.265 95.2726 186.389 95.2213 186.517 95.1616C186.743 95.0591 186.966 94.9481 187.183 94.8328L187.252 94.7902C187.444 94.6792 187.632 94.5682 187.816 94.4486C188.225 94.1787 188.612 93.876 188.973 93.5436C188.999 93.5436 189.02 93.4966 189.042 93.4753C189.572 92.9782 190.047 92.4257 190.46 91.8274L190.532 91.7122C190.652 91.5329 190.771 91.3536 190.883 91.1657C190.898 91.1396 190.913 91.1125 190.925 91.0846C191.045 90.8797 191.16 90.6577 191.267 90.4613C191.297 90.4058 191.318 90.3503 191.344 90.2991C191.438 90.107 191.532 89.9149 191.617 89.7142C191.664 89.6075 191.703 89.4922 191.745 89.3813C191.788 89.2703 191.869 89.0824 191.929 88.9245L192.032 88.6043C192.479 87.2435 192.765 85.8351 192.886 84.4078C193.313 79.6222 192.232 74.0596 189.84 68.7489C184.608 57.1242 174.954 50.5157 167.859 53.7047C164.224 55.3398 161.96 59.1606 161.486 64.4713C161.379 65.708 161.366 66.951 161.448 68.1896C161.758 72.3242 162.807 76.3698 164.545 80.1345Z" fill="#71717A"/>
<path d="M252.409 53.7644C251.302 53.7636 250.22 54.0909 249.3 54.705C248.379 55.3191 247.662 56.1923 247.239 57.2141C246.815 58.2359 246.705 59.3603 246.921 60.4449C247.137 61.5295 247.671 62.5256 248.454 63.3071C249.237 64.0885 250.234 64.6202 251.32 64.8347C252.405 65.0492 253.53 64.9369 254.552 64.5121C255.574 64.0874 256.446 63.3691 257.059 62.4484C257.672 61.5276 257.998 60.4458 257.996 59.3398C257.992 57.8607 257.402 56.4432 256.355 55.3981C255.308 54.353 253.889 53.7655 252.409 53.7644Z" fill="#71717A"/>
<path d="M229.526 67.1821C229.486 66.9984 229.387 66.8331 229.243 66.7118C229.099 66.5904 228.919 66.5199 228.732 66.5112C228.544 66.5024 228.358 66.5559 228.204 66.6633C228.049 66.7708 227.935 66.9261 227.878 67.1053C227.333 68.5176 226.498 69.8001 225.427 70.87C224.356 71.9399 223.072 72.7734 221.658 73.3168C221.482 73.3742 221.33 73.4872 221.224 73.6388C221.118 73.7904 221.064 73.9724 221.07 74.1573C221.076 74.3422 221.142 74.5201 221.258 74.6642C221.375 74.8082 221.534 74.9107 221.714 74.9561C223.167 75.3967 224.488 76.1892 225.56 77.2632C226.633 78.3371 227.423 79.6593 227.861 81.1121C227.916 81.2854 228.026 81.4365 228.173 81.5433C228.321 81.65 228.499 81.7069 228.681 81.7055C228.862 81.7084 229.04 81.6532 229.189 81.548C229.337 81.4428 229.448 81.2931 229.505 81.1206C229.969 79.6794 230.769 78.3693 231.841 77.2988C232.912 76.2283 234.222 75.4282 235.664 74.9646C235.839 74.9037 235.99 74.7889 236.096 74.6368C236.201 74.4847 236.256 74.3032 236.251 74.1182C236.247 73.9332 236.184 73.7544 236.072 73.6073C235.96 73.4602 235.803 73.3526 235.626 73.2997C234.155 72.9173 232.814 72.1482 231.741 71.0724C230.669 69.9966 229.904 68.6533 229.526 67.1821Z" fill="#71717A"/>
<path d="M219.446 37.3798C225.251 39.3265 229.022 43.0961 230.979 48.9063C231.087 49.2306 231.295 49.5129 231.572 49.7134C231.85 49.914 232.183 50.0229 232.525 50.0247C232.866 50.0243 233.198 49.9182 233.476 49.7208C233.754 49.5235 233.963 49.2449 234.076 48.9233C236.1 43.1729 239.88 39.3948 245.638 37.3713C245.964 37.2548 246.245 37.0387 246.441 36.7536C246.636 36.4684 246.737 36.1288 246.729 35.7831C246.72 35.4374 246.603 35.1032 246.393 34.8281C246.184 34.5529 245.893 34.3508 245.561 34.2506C239.628 32.4789 235.878 28.7307 234.105 22.7967C234.009 22.4707 233.814 22.1826 233.547 21.9724C233.279 21.7622 232.953 21.6402 232.614 21.6234C232.274 21.6065 231.938 21.6955 231.651 21.8782C231.364 22.0609 231.141 22.3282 231.013 22.643C229.99 25.2931 228.424 27.6998 226.414 29.7079C224.404 31.7159 221.995 33.2808 219.343 34.3018C219.033 34.4293 218.77 34.6485 218.588 34.9299C218.406 35.2113 218.314 35.5415 218.326 35.8764C218.337 36.2112 218.45 36.5346 218.65 36.8033C218.85 37.072 219.128 37.2732 219.446 37.3798Z" fill="#71717A"/>
<path d="M245.091 182.37H218.852L240.013 172.858C241.903 172.003 243.378 170.434 244.113 168.494C244.849 166.555 244.786 164.403 243.938 162.51L224.623 119.602L216.332 101.177L188.73 39.8345C188.308 38.897 187.706 38.0518 186.957 37.3472C186.208 36.6425 185.328 36.0923 184.366 35.7279C183.405 35.3635 182.381 35.1922 181.353 35.2236C180.325 35.2551 179.313 35.4888 178.376 35.9112L147.57 49.7558C146.575 50.2006 145.685 50.8509 144.96 51.6641L134.17 6.0321C133.935 5.03139 133.505 4.08685 132.904 3.25257C132.303 2.41829 131.544 1.71065 130.669 1.17017C129.794 0.629683 128.821 0.266967 127.806 0.102787C126.79 -0.0613935 125.753 -0.0238136 124.752 0.213375L100.063 6.04064C98.0437 6.52119 96.2977 7.78256 95.2078 9.54807C94.118 11.3136 93.7733 13.439 94.2494 15.4582L102.117 48.7568C101.272 48.4513 100.381 48.2939 99.4819 48.2915H63.2173C62.2604 48.2937 61.312 48.4717 60.4195 48.8166V24.7605C60.4172 22.5545 59.5394 20.4394 57.9786 18.8796C56.4179 17.3197 54.3017 16.4423 52.0944 16.4401H19.2043C18.1099 16.4389 17.026 16.6533 16.0145 17.0708C15.003 17.4883 14.0836 18.1009 13.309 18.8735C12.5344 19.6461 11.9196 20.5637 11.4997 21.5738C11.0799 22.5839 10.8632 23.6667 10.8621 24.7605V177.849C10.861 179.46 11.3317 181.036 12.2162 182.383H7.31681C5.40626 182.429 3.5895 183.22 2.25457 184.587C0.919636 185.953 0.172363 187.788 0.172363 189.698C0.172363 191.608 0.919636 193.442 2.25457 194.809C3.5895 196.176 5.40626 196.967 7.31681 197.013H245.091C247.002 196.967 248.819 196.176 250.154 194.809C251.489 193.442 252.236 191.608 252.236 189.698C252.236 187.788 251.489 185.953 250.154 184.587C248.819 183.22 247.002 182.429 245.091 182.383V182.37ZM173.293 171.479L169.722 156.397L166.557 143.013L150.624 75.6391L171.247 121.459L179.538 139.88L198.665 182.383H161.239L167.471 180.914C169.493 180.432 171.241 179.168 172.332 177.399C173.424 175.631 173.769 173.502 173.293 171.479ZM221.065 123.956L239.346 164.572C239.651 165.248 239.676 166.018 239.414 166.711C239.152 167.405 238.625 167.967 237.95 168.273L207.144 182.127C206.466 182.429 205.695 182.451 205.001 182.187C204.307 181.923 203.746 181.395 203.441 180.718L185.159 140.093L185.586 139.893L221.065 123.956ZM148.164 55.899C148.294 55.5552 148.49 55.2405 148.742 54.973C148.995 54.7056 149.297 54.4907 149.633 54.3408L180.443 40.4919C180.803 40.3306 181.193 40.2462 181.588 40.2443C181.927 40.2436 182.263 40.3059 182.579 40.4279C182.924 40.557 183.24 40.7533 183.508 41.0054C183.776 41.2575 183.992 41.5604 184.142 41.8965L210.715 100.942L178.653 115.354L174.809 117.087L148.219 58.0591C148.066 57.7211 147.982 57.3557 147.972 56.9847C147.963 56.6136 148.028 56.2445 148.164 55.899ZM146.314 150.36L162.238 146.595L164.25 155.103L144.05 159.872L134.123 162.224L132.116 153.724L146.314 150.36ZM106.248 17.264L124.244 13.0163C124.566 12.9381 124.901 12.9245 125.229 12.976C125.557 13.0275 125.871 13.1433 126.154 13.3167C126.437 13.49 126.683 13.7175 126.878 13.9861C127.073 14.2547 127.212 14.5591 127.289 14.8819L134.551 45.5636C134.627 45.8848 134.639 46.2179 134.586 46.5438C134.533 46.8697 134.416 47.182 134.242 47.4627C134.069 47.7435 133.841 47.9872 133.573 48.18C133.305 48.3727 133.001 48.5107 132.68 48.5861L114.684 52.8551C114.495 52.8989 114.302 52.9218 114.107 52.9234C113.54 52.9239 112.99 52.7326 112.546 52.3807C112.101 52.0288 111.789 51.537 111.66 50.9853L104.398 20.3036C104.319 19.9826 104.305 19.6492 104.355 19.3225C104.405 18.9958 104.52 18.6822 104.691 18.3998C104.863 18.1174 105.089 17.8717 105.356 17.6767C105.623 17.4818 105.926 17.3416 106.248 17.264ZM60.4024 177.836V56.1039C60.4035 55.3622 60.6985 54.6512 61.2229 54.1264C61.7472 53.6016 62.4582 53.3056 63.2002 53.3034H99.4819C100.225 53.3045 100.937 53.5999 101.462 54.1249C101.987 54.6498 102.283 55.3615 102.284 56.1039V178.331C102.283 179.073 101.987 179.785 101.462 180.309C100.936 180.833 100.224 181.128 99.4819 181.128H63.2173C62.4756 181.126 61.7646 180.831 61.2402 180.307C60.7158 179.783 60.4206 179.073 60.4195 178.331L60.4024 177.836ZM15.8939 55.0366H55.3706V60.3559H15.8939V55.0366ZM15.8939 65.3806H55.3706V77.2059H15.8939V65.3806ZM15.8939 141.229H55.3706V146.544H15.8939V141.229ZM107.303 178.331V70.7212L126.618 152.427L129.784 165.806L133.35 180.897C133.468 181.399 133.635 181.888 133.85 182.357H106.175C106.917 181.145 107.31 179.752 107.312 178.331H107.303Z" fill="#71717A"/>
</g>
<defs>
<clipPath id="clip0_203_4730">
<rect width="258" height="197" fill="white"/>
</clipPath>
</defs>
</svg>
