<svg width="30" height="30" viewBox="0 0 30 30" fill="none" xmlns="http://www.w3.org/2000/svg">
<path fill-rule="evenodd" clip-rule="evenodd" d="M28.8015 1.35062C29.9546 2.50375 29.9546 4.37335 28.8015 5.52648L5.67883 28.6491C4.5257 29.8023 2.6561 29.8023 1.50297 28.6491C0.349843 27.496 0.34984 25.6264 1.50297 24.4733L24.6256 1.35062C25.7788 0.197493 27.6484 0.197493 28.8015 1.35062Z" fill="#E4E4E7"/>
<path fill-rule="evenodd" clip-rule="evenodd" d="M28.8015 28.6491C27.6483 29.8023 25.7788 29.8023 24.6256 28.6491L1.50297 5.52648C0.349836 4.37335 0.349836 2.50376 1.50297 1.35062C2.6561 0.197493 4.52569 0.197493 5.67882 1.35062L28.8015 24.4733C29.9546 25.6264 29.9546 27.496 28.8015 28.6491Z" fill="#E4E4E7"/>
</svg>
