<svg width="32" height="32" viewBox="0 0 32 32" fill="none" xmlns="http://www.w3.org/2000/svg">
<path fill-rule="evenodd" clip-rule="evenodd" d="M17.8418 7.56937C19.0453 6.36588 20.9966 6.36587 22.2001 7.56937L24.4308 9.80011C25.6343 11.0036 25.6343 12.9548 24.4308 14.1583L13.5566 25.0325C13.3639 25.2252 13.1027 25.3334 12.8302 25.3334H7.69399C7.12666 25.3334 6.66675 24.8735 6.66675 24.3062V19.1699C6.66675 18.8975 6.77498 18.6362 6.96762 18.4436L17.8418 7.56937ZM20.7473 9.02211C20.3461 8.62095 19.6957 8.62095 19.2946 9.02211L18.3919 9.92473L22.0754 13.6082L22.9781 12.7056C23.3792 12.3044 23.3792 11.654 22.9781 11.2529L20.7473 9.02211ZM20.6227 15.061L16.9392 11.3775L8.72124 19.5954V23.2789H12.4047L20.6227 15.061Z" fill="#322828"/>
</svg>
